<svg width="570" height="633" viewBox="0 0 570 633" fill="none" xmlns="http://www.w3.org/2000/svg">
<path d="M364.072 518.169C364.072 518.169 562.701 495.322 474.884 305.212C447.038 260.222 401.354 247.696 356.102 201.657C356.102 201.657 297.909 92.3125 192.407 120.669C142.901 133.973 127.168 183.992 121.827 194.97C116.486 205.948 33.9414 312.087 58.293 423.846C64.7741 453.586 130.335 580.983 364.072 518.169Z" fill="#F2F2F2"/>
<path d="M460.46 534.756H122.524V539.644H460.46V534.756Z" fill="#F2F2F2"/>
<path d="M486.701 320.896C513.141 320.896 534.575 297.093 534.575 267.73C534.575 238.367 513.141 214.564 486.701 214.564C460.26 214.564 438.826 238.367 438.826 267.73C438.826 297.093 460.26 320.896 486.701 320.896Z" fill="#0E538C"/>
<path d="M500.17 259.981L496.528 260.521C495.362 260.691 494.792 259.307 495.599 258.358C496.702 257.063 498.845 253.599 499.948 250.592C501.558 246.208 502.645 242.134 500.096 240.03C497.441 237.844 494.887 238.325 492.659 243.166C491.134 246.477 487.028 252.755 479.945 255.093C476.108 256.365 473.348 258.481 473.902 263.088C474.06 264.412 473.797 265.415 472.488 265.925C470.514 266.686 467.389 267.818 466.054 268.392C465.173 268.767 464.465 269.482 464.587 270.52L467.025 290.905C467.152 291.942 468.007 292.675 468.941 292.534L475.575 291.555C476.578 291.409 477.507 292.036 477.966 293.038C479.296 295.951 481.945 297.088 485.566 296.555L501.494 294.72C506.218 294.023 508.408 291.772 508.688 286.491C508.915 282.113 508.841 273.456 508.809 268.38C508.762 262.033 504.893 259.284 500.17 259.981Z" fill="white"/>
<path d="M382.533 161.497C399.116 161.497 412.559 146.569 412.559 128.153C412.559 109.738 399.116 94.8093 382.533 94.8093C365.951 94.8093 352.508 109.738 352.508 128.153C352.508 146.569 365.951 161.497 382.533 161.497Z" fill="#0E538C"/>
<path d="M395.316 119.514C392.804 116.677 388.751 116.396 385.748 118.57L384.101 119.766C383.573 120.147 382.866 119.983 382.523 119.397L381.446 117.568C379.488 114.239 375.672 112.686 372.347 114.163C367.771 116.191 366.225 122.175 368.774 126.506L377.715 141.704C378.311 142.718 379.536 143.005 380.449 142.343L394.134 132.414C398.024 129.583 398.773 123.412 395.316 119.514Z" fill="white"/>
<path d="M91.3953 262.73C112.668 262.73 129.912 243.579 129.912 219.956C129.912 196.332 112.668 177.181 91.3953 177.181C70.1228 177.181 52.8781 196.332 52.8781 219.956C52.8781 243.579 70.1228 262.73 91.3953 262.73Z" fill="#1C558B"/>
<path d="M111.335 202.39L71.5034 202.314C68.9859 202.314 66.9592 204.57 66.9487 207.349V208.157C66.9487 208.574 66.9381 220.935 66.9381 221.316L66.917 231.362C66.917 234.157 68.9489 236.408 71.4612 236.42L77.9264 236.431L77.9475 246.489C77.9475 247.099 78.3803 247.603 78.9609 247.603C79.3145 247.603 79.5889 247.392 79.7895 247.122C79.9003 246.976 83.8164 240.716 86.4078 236.443L111.282 236.478C113.799 236.49 115.837 234.222 115.837 231.444L115.868 207.436C115.868 204.652 113.842 202.39 111.335 202.39ZM75.3351 219.364C75.3456 217.06 77.0239 215.197 79.0981 215.197C81.1723 215.208 82.8612 217.072 82.8506 219.376C82.8506 221.691 81.1617 223.555 79.0876 223.543C77.0081 223.543 75.3351 221.667 75.3351 219.364ZM91.3953 223.566C89.3212 223.566 87.6323 221.691 87.6428 219.387C87.6428 217.084 89.3317 215.22 91.4059 215.22C93.48 215.232 95.1584 217.096 95.1584 219.399C95.1425 221.708 93.4695 223.566 91.3953 223.566ZM103.693 223.59C101.618 223.59 99.94 221.714 99.94 219.411C99.94 217.107 101.629 215.243 103.703 215.243C105.777 215.243 107.456 217.119 107.456 219.422C107.456 221.732 105.767 223.59 103.693 223.59Z" fill="white"/>
<path d="M201.701 165.225C222.973 165.225 240.218 146.074 240.218 122.45C240.218 98.8267 222.973 79.676 201.701 79.676C180.428 79.676 163.184 98.8267 163.184 122.45C163.184 146.074 180.428 165.225 201.701 165.225Z" fill="#0E538C"/>
<path d="M190.427 141.048V126.424L225.409 102.452L191.599 141.569C191.172 142.062 190.427 141.728 190.427 141.048Z" fill="white"/>
<path d="M178.209 113.876L205.844 142.249C206.171 142.589 206.704 142.484 206.91 142.044L225.409 102.446L178.542 112.58C177.998 112.703 177.803 113.459 178.209 113.876Z" fill="white"/>
<path d="M178.209 113.876L190.427 126.418L225.409 102.446L178.542 112.58C177.998 112.703 177.803 113.459 178.209 113.876Z" fill="#F2F2F2"/>
<path d="M371.244 369.69L441.94 321.711" stroke="#FFB86C" stroke-width="7" stroke-miterlimit="10" stroke-linejoin="round" stroke-dasharray="17 17"/>
<path d="M315.901 353.208L368.294 179.948" stroke="#FFB86C" stroke-width="7" stroke-miterlimit="10" stroke-linejoin="round" stroke-dasharray="17 17"/>
<path d="M196.46 303.172L130.931 259.712" stroke="#FFB86C" stroke-width="7" stroke-miterlimit="10" stroke-linejoin="round" stroke-dasharray="17 17"/>
<path d="M251.138 230.265L226.812 183.365" stroke="#FFB86C" stroke-width="7" stroke-miterlimit="10" stroke-linejoin="round" stroke-dasharray="17 17"/>
<path d="M366.452 500.75L376.511 520.771L364.404 522.184L356.044 511.335L366.452 500.75Z" fill="#D8A17E"/>
<path d="M315.769 478.407H252.763C252.531 478.712 252.167 478.923 251.655 478.923H204.91C190.084 488.992 175.871 498.499 170.974 501.318C170.039 522.483 198.407 521.51 198.407 521.51C198.407 521.51 287.375 521.51 310.724 521.51C322.715 521.51 330.283 510.075 330.283 502.25C330.283 483.594 315.769 478.407 315.769 478.407Z" fill="#1C558B"/>
<path d="M298.537 411.526C277.717 411.526 246.995 448.826 246.995 448.826C246.995 448.826 228.158 464.001 209.021 479.169C209.021 479.169 252.41 479.351 252.647 479.615C299.266 478.782 302.665 455.238 302.665 455.238L355.126 522.858L375.757 506.787C375.757 506.793 328.193 411.526 298.537 411.526Z" fill="#17496F"/>
<path d="M170.974 505.081C170.974 505.081 239.954 477.722 242.419 446.259C242.419 409.322 246.731 358.712 246.731 358.712C246.731 358.712 251.502 360.933 252.119 356.83C252.737 352.728 241.96 319.044 207.929 315.281C206.699 315.451 201.31 320.069 203.31 324.688C201.922 324.858 178.521 334.605 184.833 352.903C185.139 353.759 186.221 355.898 186.221 355.898C186.221 355.898 152.037 428.23 160.355 489.784C163.352 495.932 166.588 505.767 170.974 505.081Z" fill="#FFB86C"/>
<path d="M252.072 324.559C252.072 324.559 251.544 325.063 250.768 326.007C250.636 326.153 250.504 326.323 250.351 326.511C250.124 326.786 249.876 327.056 249.692 327.372C249.671 327.372 249.671 327.396 249.655 327.413C248.462 329.031 247.063 331.258 246.045 333.925C245.723 334.787 245.422 335.666 245.195 336.615C245.026 337.225 244.894 337.852 244.799 338.503C244.44 340.689 244.44 343.016 244.968 345.471C235.969 336.398 221.957 320.843 221.957 320.843L222.469 319.12L223.187 316.6L223.941 313.974L224.717 311.307L226.137 306.436L252.072 324.559Z" fill="#D8A17E"/>
<path d="M250.789 326.007C250.657 326.177 250.526 326.341 250.357 326.511C250.13 326.786 249.882 327.056 249.697 327.372C249.676 327.372 249.676 327.396 249.66 327.413C248.467 329.031 247.069 331.258 246.05 333.925C246.029 333.948 245.992 333.966 245.955 333.99C237.674 323.891 225.097 314.818 223.947 313.98L225.308 309.144L250.774 326.007H250.789V326.007Z" fill="#C38C6D"/>
<path d="M223.603 309.302C224.385 311.137 245.77 334.617 260.448 323.17C266.691 317.971 268.417 316.266 272.476 280.894C269.668 277.776 242.503 268.41 242.503 268.41L228.142 280.548C228.137 280.548 222.817 307.462 223.603 309.302Z" fill="#D8A17E"/>
<path d="M266.227 454.752C266.332 454.377 266.649 454.131 266.997 454.148C269.515 454.259 279.638 454.834 289.349 456.979C295.012 458.233 305.684 466.152 310.069 469.545C310.692 470.026 310.391 471.11 309.631 471.122L280.82 471.556C280.757 471.556 289.243 471.55 289.185 471.532L263.54 467.154C263.097 467.043 262.833 466.527 262.97 466.04L266.227 454.752Z" fill="#D8A17E"/>
<path d="M269.362 473.877L276.292 452.589C276.292 452.589 234.951 433.353 227.789 432.585C230.327 420.019 255.967 360.001 234.027 347.177C231.256 345.384 211.391 337.172 203.77 374.877C196.149 412.581 187.604 451.821 199.611 456.95C211.623 462.078 269.362 473.877 269.362 473.877Z" fill="#F4B251"/>
<path d="M354.376 478.237H273.959C273.463 478.237 273.056 477.786 273.056 477.235V472.06C273.056 471.509 273.463 471.057 273.959 471.057H354.376C354.872 471.057 355.279 471.509 355.279 472.06V477.235C355.279 477.786 354.878 478.237 354.376 478.237Z" fill="#D3D3D3"/>
<path d="M362.457 521.826L364.8 535.201L401.839 533.953C401.839 533.953 404.573 528.59 394.424 525.841C384.275 523.092 379.71 519.482 379.71 519.482L362.457 521.826Z" fill="#0E538C"/>
<path d="M349.542 474.094L389.774 396.768C390.022 396.287 390.577 396.123 391.009 396.399L395.047 398.989C395.48 399.265 395.627 399.88 395.374 400.361L355.142 477.686C354.894 478.167 354.339 478.331 353.907 478.056L349.869 475.465C349.436 475.184 349.289 474.568 349.542 474.094Z" fill="#D3D3D3"/>
<path d="M239.02 301.882C239.859 302.07 243.047 293.378 244.973 289.545C246.9 285.717 246.261 284.041 246.261 284.041C246.261 284.041 273.537 289.709 277.965 284.557C290.589 271.393 284.757 254.753 270.439 254.753C266.433 254.753 263.973 259.372 257.044 259.372C255.655 259.372 246.725 252.362 242.725 252.362C239.03 252.362 234.412 263.82 232.718 263.82C229.947 263.82 219.476 258.692 219.476 270.66C219.476 282.629 221.265 287.054 221.846 287.013C222.105 286.761 223.35 309.59 223.35 309.59C223.35 309.59 225.335 313.476 229.029 307.527C232.38 302.129 237.373 286.784 239.147 287.687C240.524 287.687 241.21 288.496 241.537 288.994C241.537 289.058 238.672 291.549 238.218 294.796C237.526 299.72 238.181 301.689 239.02 301.882Z" fill="#0E538C"/>
<path d="M492.19 353.402C494.696 353.402 496.729 351.145 496.729 348.361C496.729 345.577 494.696 343.32 492.19 343.32C489.683 343.32 487.651 345.577 487.651 348.361C487.651 351.145 489.683 353.402 492.19 353.402Z" fill="#FFB86C"/>
<path d="M143.059 171.455C147.717 171.455 151.493 167.262 151.493 162.089C151.493 156.916 147.717 152.723 143.059 152.723C138.401 152.723 134.625 156.916 134.625 162.089C134.625 167.262 138.401 171.455 143.059 171.455Z" fill="#FFB86C"/>
<path d="M57.723 377.725C69.3416 377.725 78.7602 367.265 78.7602 354.363C78.7602 341.46 69.3416 331 57.723 331C46.1045 331 36.6858 341.46 36.6858 354.363C36.6858 367.265 46.1045 377.725 57.723 377.725Z" fill="#FFB86C"/>
<path d="M239.015 293.624C239.664 291.573 241.59 289.633 241.537 288.988C241.485 288.343 241.474 287.652 240.888 287.394C238.471 286.327 235.225 288.806 233.647 292.927C232.069 297.047 232.745 301.249 235.167 302.316C236.175 302.762 237.737 302.386 238.17 301.437C238.603 300.487 238.17 296.279 239.015 293.624Z" fill="#C38C6D"/>
<path d="M248.261 524.435C248.261 524.435 312.555 514.318 331.576 522.055C337.736 528.004 354.614 536.931 270.497 536.931C186.379 536.931 165.749 532.763 165.749 532.763C165.749 532.763 147.266 512.836 248.261 524.435Z" fill="#FFB86C"/>
</svg>
