<svg width="657" height="646" viewBox="0 0 657 646" fill="none" xmlns="http://www.w3.org/2000/svg">
<g filter="url(#filter0_d_11_208)">
<path opacity="0.09" d="M161.868 502.427C151.685 494.594 145.033 483.046 143.39 470.449C137.641 428.056 147.661 333.74 238.327 254.766C348.374 158.916 463.349 165.538 519.03 189.601C580.377 216.087 619.305 304.912 625.628 384.047C630.391 443.56 595.817 494.755 537.344 510.905C439.204 537.957 235.699 559.355 161.868 502.427Z" fill="#2A94F4"/>
<path opacity="0.3" d="M522.151 438.472C532.745 430.317 539.643 418.366 541.368 405.203C547.281 361.114 536.933 263.083 442.654 180.961C328.171 81.3152 208.68 88.179 150.781 113.211C86.9704 140.747 46.4827 233.125 39.9949 315.409C35.0674 377.264 70.956 430.559 131.811 447.274C233.728 475.537 445.364 497.662 522.151 438.472Z" fill="#CCE9FF"/>
<path d="M499.484 363.052H154.313C147.086 363.052 141.173 357.238 141.173 350.132V145.673C141.173 138.567 147.086 132.753 154.313 132.753H499.484C506.711 132.753 512.624 138.567 512.624 145.673V350.132C512.624 357.238 506.711 363.052 499.484 363.052Z" fill="#0E538C"/>
<path d="M512.624 174.097H141.173V145.754C141.173 138.648 147.086 132.834 154.313 132.834H499.484C506.711 132.834 512.624 138.648 512.624 145.754V174.097Z" fill="#2A94F4"/>
<path d="M194.883 199.452H163.511C162.033 199.452 160.801 198.08 160.801 196.626C160.801 195.173 162.033 193.8 163.511 193.8H194.883C196.361 193.8 197.593 195.173 197.593 196.626C197.593 198.08 196.443 199.452 194.883 199.452Z" fill="#FFB86C"/>
<path d="M205.805 212.372H163.511C162.033 212.372 160.801 211.807 160.801 210.354C160.801 208.9 162.033 208.335 163.511 208.335H205.805C207.284 208.335 208.515 208.9 208.515 210.354C208.515 211.807 207.366 212.372 205.805 212.372Z" fill="#FFB86C"/>
<path d="M205.805 266.475H163.511C162.033 266.475 160.801 265.102 160.801 263.649C160.801 262.195 162.033 260.823 163.511 260.823H205.805C207.284 260.823 208.515 262.195 208.515 263.649C208.515 265.102 207.366 266.475 205.805 266.475Z" fill="#FFB86C"/>
<path d="M190.776 279.395H163.429C161.951 279.395 160.719 278.83 160.719 277.376C160.719 275.923 161.951 275.357 163.429 275.357H190.776C192.255 275.357 193.487 275.923 193.487 277.376C193.487 278.83 192.337 279.395 190.776 279.395Z" fill="#FFB86C"/>
<path d="M190.776 320.577H163.429C161.951 320.577 160.719 319.205 160.719 317.751C160.719 316.298 161.951 314.925 163.429 314.925H190.776C192.255 314.925 193.487 316.298 193.487 317.751C193.487 319.205 192.337 320.577 190.776 320.577Z" fill="#FFB86C"/>
<path d="M190.776 333.497H163.429C161.951 333.497 160.719 332.528 160.719 331.075C160.719 329.621 161.951 328.652 163.429 328.652H190.776C192.255 328.652 193.487 329.621 193.487 331.075C193.487 332.528 192.337 333.497 190.776 333.497Z" fill="#FFB86C"/>
<path d="M233.153 226.908H190.859C189.38 226.908 188.148 225.535 188.148 224.081C188.148 222.628 189.38 221.255 190.859 221.255H233.153C234.631 221.255 235.863 222.628 235.863 224.081C235.863 225.535 234.631 226.908 233.153 226.908Z" fill="#2A94F4"/>
<path d="M289.162 226.908H246.868C245.389 226.908 244.158 225.535 244.158 224.081C244.158 222.628 245.389 221.255 246.868 221.255H289.162C290.64 221.255 291.872 222.628 291.872 224.081C291.872 225.535 290.64 226.908 289.162 226.908Z" fill="#2A94F4"/>
<path d="M409.311 226.908H367.017C365.538 226.908 364.306 225.535 364.306 224.081C364.306 222.628 365.538 221.255 367.017 221.255H409.311C410.789 221.255 412.021 222.628 412.021 224.081C412.021 225.535 410.789 226.908 409.311 226.908Z" fill="#2A94F4"/>
<path d="M462.528 226.908H420.234C418.755 226.908 417.523 225.535 417.523 224.081C417.523 222.628 418.755 221.255 420.234 221.255H462.528C464.006 221.255 465.238 222.628 465.238 224.081C465.238 225.535 464.088 226.908 462.528 226.908Z" fill="#2A94F4"/>
<path d="M405.205 239.827H362.91C361.432 239.827 360.2 238.858 360.2 237.405C360.2 235.951 361.432 234.982 362.91 234.982H405.205C406.683 234.982 407.915 235.951 407.915 237.405C407.915 238.858 406.683 239.827 405.205 239.827Z" fill="#2A94F4"/>
<path d="M405.205 292.315H362.91C361.432 292.315 360.2 290.942 360.2 289.489C360.2 288.035 361.432 286.662 362.91 286.662H405.205C406.683 286.662 407.915 288.035 407.915 289.489C407.915 290.942 406.683 292.315 405.205 292.315Z" fill="#2A94F4"/>
<path d="M436.577 305.235H394.282C392.804 305.235 391.572 304.67 391.572 303.216C391.572 301.763 392.804 301.197 394.282 301.197H436.577C438.055 301.197 439.287 301.763 439.287 303.216C439.287 304.67 438.137 305.235 436.577 305.235Z" fill="#2A94F4"/>
<path d="M227.651 239.827H190.776C189.298 239.827 188.066 238.858 188.066 237.405C188.066 235.951 189.298 234.982 190.776 234.982H227.651C229.129 234.982 230.361 235.951 230.361 237.405C230.361 238.858 229.211 239.827 227.651 239.827Z" fill="#2A94F4"/>
<path d="M274.133 239.827H237.259C235.781 239.827 234.549 238.858 234.549 237.405C234.549 235.951 235.781 234.982 237.259 234.982H274.133C275.611 234.982 276.843 235.951 276.843 237.405C276.843 238.858 275.611 239.827 274.133 239.827Z" fill="#2A94F4"/>
<path d="M298.689 253.555H190.776C189.298 253.555 188.066 252.182 188.066 250.729C188.066 249.275 189.298 247.902 190.776 247.902H298.689C300.167 247.902 301.399 249.275 301.399 250.729C301.399 252.182 300.167 253.555 298.689 253.555Z" fill="#2A94F4"/>
<path d="M283.66 292.315H190.776C189.298 292.315 188.066 290.942 188.066 289.489C188.066 288.035 189.298 286.662 190.776 286.662H283.66C285.138 286.662 286.37 288.035 286.37 289.489C286.37 290.942 285.138 292.315 283.66 292.315Z" fill="#2A94F4"/>
<path d="M298.689 305.235H190.776C189.298 305.235 188.066 304.67 188.066 303.216C188.066 301.763 189.298 301.197 190.776 301.197H298.689C300.167 301.197 301.399 301.763 301.399 303.216C301.399 304.67 300.167 305.235 298.689 305.235Z" fill="#2A94F4"/>
<path d="M293.186 246.933C293.186 246.933 273.476 229.33 283.167 210.596C284.809 207.366 285.466 203.813 285.384 200.26C285.302 197.111 286.206 193.073 290.065 189.439C297.703 182.172 307.558 175.954 322.176 176.439C336.795 176.923 348.046 181.284 353.63 176.439C358.476 172.32 359.625 174.985 358.886 182.333C358.64 184.756 359.379 187.098 360.857 188.955C362.91 191.458 365.374 195.496 365.456 200.583C365.538 203.813 366.195 206.962 367.509 209.869C370.63 216.733 373.751 230.783 359.461 247.902" fill="#192541"/>
<path d="M265.51 412.955C265.921 405.607 265.839 398.259 265.51 390.911C264.114 364.102 265.182 347.225 265.182 335.516C265.182 328.491 269.781 305.639 281.278 304.347C293.843 302.893 312.239 299.421 340.983 301.117C379.992 303.378 382.538 312.099 382.374 336.808C382.292 346.014 384.838 466.251 384.838 466.251C343.447 481.835 266.413 467.866 266.413 467.866C269.616 461.809 263.868 441.783 265.51 412.955Z" fill="#FFB86C"/>
<path d="M404.958 359.66C404.958 359.66 422.862 399.712 419.002 423.776C416.374 440.168 377.775 453.25 366.36 450.504C354.944 447.759 356.258 445.256 366.77 440.088C377.282 434.92 399.374 428.056 391.49 408.676C383.688 389.296 370.302 349.486 370.302 349.486L404.958 359.66Z" fill="#FCD2B1"/>
<path d="M367.181 304.912C367.181 304.912 381.717 305.477 393.132 318.882C396.5 322.838 397.731 329.137 400.606 335.435C402.741 340.119 401.509 345.125 402.987 351.263C402.987 351.263 410.461 369.028 410.461 371.046C410.461 371.046 381.717 375.81 376.707 378.96C371.698 382.028 356.505 304.751 367.181 304.912Z" fill="#FFB86C"/>
<path d="M246.211 356.753C246.211 356.753 226.747 400.762 230.607 424.826C233.235 441.218 268.713 454.38 280.128 451.635C291.544 448.889 294.418 444.852 283.906 439.684C273.394 434.516 247.853 423.615 255.655 404.154C263.457 384.774 278.65 349.405 278.65 349.405L246.211 356.753Z" fill="#FCD2B1"/>
<path d="M279.964 304.912C279.964 304.912 264.771 305.719 255.655 312.502C250.481 316.378 249.331 322.515 248.757 330.59C248.182 339.311 243.747 346.418 241.283 355.462C239.887 360.387 237.998 370.481 237.998 371.612C237.998 371.612 261.486 373.065 270.93 375.891C276.679 377.668 290.64 304.75 279.964 304.912Z" fill="#FFB86C"/>
<path d="M340.737 303.135V269.624H305.669V302.086C305.669 302.086 306.737 323.888 324.312 324.13C337.945 324.373 340.737 303.135 340.737 303.135Z" fill="#FCD2B1"/>
<path d="M340.737 286.582C340.737 286.582 337.123 296.837 324.23 296.837C315.771 296.837 305.752 287.551 305.752 284.482L305.669 274.308L340.737 276.165V286.582V286.582Z" fill="#F4C6A4"/>
<path d="M287.368 238.924C283.006 240.691 281.347 246.602 283.662 252.128C285.977 257.653 291.39 260.7 295.751 258.933C300.112 257.167 301.771 251.255 299.456 245.73C297.141 240.205 291.729 237.158 287.368 238.924Z" fill="#FCD2B1"/>
<path d="M364.877 239.158C360.62 237.162 355.047 239.916 352.431 245.309C349.814 250.703 351.145 256.695 355.402 258.691C359.66 260.688 365.232 257.934 367.849 252.54C370.465 247.146 369.135 241.155 364.877 239.158Z" fill="#FCD2B1"/>
<path d="M338.766 268.171C334.331 271.078 324.065 273.823 312.732 268.978C311.829 268.574 311.008 269.543 311.336 270.432C312.814 275.196 317.331 280.848 327.35 280.687C335.891 280.525 339.259 273.5 340.408 269.786C340.655 268.817 339.587 267.605 338.766 268.171Z" fill="white"/>
<path d="M386.316 373.711H262.389V457.61H386.316V373.711Z" fill="#BBBCBC"/>
<path d="M388.533 457.61H260.254V461.971H388.533V457.61Z" fill="#878787"/>
<path d="M495.214 461.89H161.129V476.021H495.214V461.89Z" fill="#192541"/>
<path d="M332.79 431.26L371.414 427.2L367.32 389.545L328.696 393.605L332.79 431.26Z" fill="#FFB86C"/>
<path d="M366.77 390.184L370.712 426.683L333.263 430.64L329.321 394.06L366.77 390.184ZM367.838 388.892L366.688 389.053L329.239 393.01L328.089 393.172L328.254 394.302L332.196 430.801L332.36 431.932L333.51 431.77L370.959 427.813L372.108 427.652L371.944 426.522L367.92 390.022L367.838 388.892Z" fill="#F7F7F7"/>
<path d="M364.717 409.887C363.814 410.614 362.993 411.26 362.171 411.906C362.007 411.744 361.843 411.502 361.679 411.341C361.104 410.695 360.282 410.533 359.461 410.695C358.886 410.856 358.476 411.179 358.311 411.825C358.147 412.471 358.394 413.036 358.886 413.359C359.379 413.682 359.954 413.844 360.447 414.086C361.679 414.571 362.91 414.894 364.06 415.459C366.113 416.509 367.099 418.447 366.77 420.708C366.606 422 365.867 423.13 364.717 423.776C362.089 425.31 359.379 425.391 356.669 423.938C355.848 423.453 355.191 422.807 354.616 421.919C355.519 421.273 356.423 420.627 357.326 419.981C357.572 420.223 357.819 420.465 357.983 420.708C359.133 421.757 360.693 422.08 362.007 421.434C362.664 421.192 363.075 420.707 363.075 419.981C363.075 419.254 362.746 418.77 362.089 418.447C361.186 418.124 360.282 417.801 359.297 417.478C358.558 417.155 357.737 416.912 356.997 416.509C355.109 415.459 354.205 413.44 354.616 411.421C354.944 409.564 356.423 408.111 358.558 407.707C360.857 407.303 362.828 407.626 364.389 409.564C364.553 409.645 364.553 409.726 364.717 409.887Z" fill="#303030"/>
<path d="M345.007 421.515C345.336 421.838 345.5 422.161 345.746 422.403C346.321 422.968 346.978 423.13 347.799 422.968C348.539 422.807 348.949 422.403 349.031 421.596C349.031 421.273 349.031 420.869 349.031 420.546C348.621 416.912 348.292 413.278 347.799 409.645C347.717 409.079 347.882 408.918 348.456 408.837C349.196 408.837 349.935 408.756 350.674 408.595C351.167 408.514 351.331 408.676 351.413 409.16C351.741 412.713 352.152 416.185 352.563 419.738C352.563 420.142 352.645 420.465 352.645 420.869C352.809 423.776 351.495 425.472 348.621 426.118C346.239 426.683 343.94 425.875 342.543 424.018C342.297 423.614 342.297 423.453 342.708 423.211C343.447 422.726 344.186 422.161 345.007 421.515Z" fill="#303030"/>
<path d="M166.878 162.873C171.278 162.873 174.844 159.366 174.844 155.04C174.844 150.714 171.278 147.207 166.878 147.207C162.478 147.207 158.912 150.714 158.912 155.04C158.912 159.366 162.478 162.873 166.878 162.873Z" fill="#CCE9FF"/>
<path d="M191.844 162.873C196.244 162.873 199.81 159.366 199.81 155.04C199.81 150.714 196.244 147.207 191.844 147.207C187.444 147.207 183.878 150.714 183.878 155.04C183.878 159.366 187.444 162.873 191.844 162.873Z" fill="#CCE9FF"/>
<path d="M216.728 161.742C220.583 161.742 223.708 158.669 223.708 154.879C223.708 151.088 220.583 148.015 216.728 148.015C212.873 148.015 209.747 151.088 209.747 154.879C209.747 158.669 212.873 161.742 216.728 161.742Z" fill="#CCE9FF"/>
<path d="M469.591 461.89H440.519L436.905 408.11H473.122L469.591 461.89Z" fill="#0E538C"/>
<path d="M471.972 405.527H438.055L439.287 399.39H470.823L471.972 405.527Z" fill="#2A94F4"/>
<path d="M475.011 410.372H435.098L436.248 404.154H473.779L475.011 410.372Z" fill="#0B4870"/>
<path d="M475.914 422.888H434.277V443.398H475.914V422.888Z" fill="#FFB86C"/>
<path d="M325.133 293.93C344.319 293.93 359.872 271.768 359.872 244.43C359.872 217.092 344.319 194.93 325.133 194.93C305.947 194.93 290.394 217.092 290.394 244.43C290.394 271.768 305.947 293.93 325.133 293.93Z" fill="#FCD2B1"/>
<path d="M325.297 224.889C346.796 224.889 364.224 216.754 364.224 206.72C364.224 196.686 346.796 188.551 325.297 188.551C303.798 188.551 286.37 196.686 286.37 206.72C286.37 216.754 303.798 224.889 325.297 224.889Z" fill="#192541"/>
</g>
<defs>
<filter id="filter0_d_11_208" x="-4" y="0" width="665" height="654" filterUnits="userSpaceOnUse" color-interpolation-filters="sRGB">
<feFlood flood-opacity="0" result="BackgroundImageFix"/>
<feColorMatrix in="SourceAlpha" type="matrix" values="0 0 0 0 0 0 0 0 0 0 0 0 0 0 0 0 0 0 127 0" result="hardAlpha"/>
<feOffset dy="4"/>
<feGaussianBlur stdDeviation="2"/>
<feComposite in2="hardAlpha" operator="out"/>
<feColorMatrix type="matrix" values="0 0 0 0 0 0 0 0 0 0 0 0 0 0 0 0 0 0 0.25 0"/>
<feBlend mode="normal" in2="BackgroundImageFix" result="effect1_dropShadow_11_208"/>
<feBlend mode="normal" in="SourceGraphic" in2="effect1_dropShadow_11_208" result="shape"/>
</filter>
</defs>
</svg>
